<svg xmlns="http://www.w3.org/2000/svg" width="1200" height="630" viewBox="0 0 1200 630" role="img" aria-labelledby="title desc">
  <title id="title">NetBird Machine Tunnel social preview</title>
  <desc id="desc">Unofficial fork preview showing a Windows laptop connecting through Machine Tunnel mTLS to NetBird Management and a Domain Controller.</desc>

  <rect width="1200" height="630" fill="#f7fafc"/>
  <rect x="48" y="48" width="1104" height="534" rx="28" fill="#ffffff" stroke="#d8e1e8" stroke-width="2"/>

  <text x="92" y="126" fill="#0f172a" font-family="Inter, Segoe UI, Arial, sans-serif" font-size="54" font-weight="700">NetBird Machine Tunnel</text>
  <text x="94" y="168" fill="#475569" font-family="Inter, Segoe UI, Arial, sans-serif" font-size="26">Unofficial fork: pre-login Windows VPN for Active Directory</text>

  <g transform="translate(95 245)">
    <rect x="0" y="0" width="210" height="145" rx="18" fill="#e0f2fe" stroke="#0284c7" stroke-width="3"/>
    <rect x="42" y="34" width="126" height="78" rx="8" fill="#ffffff" stroke="#0369a1" stroke-width="3"/>
    <rect x="84" y="114" width="42" height="10" rx="4" fill="#0369a1"/>
    <text x="105" y="176" text-anchor="middle" fill="#0f172a" font-family="Inter, Segoe UI, Arial, sans-serif" font-size="24" font-weight="700">Windows Laptop</text>
    <text x="105" y="207" text-anchor="middle" fill="#475569" font-family="Inter, Segoe UI, Arial, sans-serif" font-size="19">before user login</text>
  </g>

  <g transform="translate(365 245)">
    <rect x="0" y="0" width="210" height="145" rx="18" fill="#dcfce7" stroke="#16a34a" stroke-width="3"/>
    <path d="M105 30 L158 56 V98 C158 119 137 133 105 139 C73 133 52 119 52 98 V56 Z" fill="#ffffff" stroke="#15803d" stroke-width="3"/>
    <text x="105" y="90" text-anchor="middle" fill="#15803d" font-family="Inter, Segoe UI, Arial, sans-serif" font-size="24" font-weight="700">mTLS</text>
    <text x="105" y="176" text-anchor="middle" fill="#0f172a" font-family="Inter, Segoe UI, Arial, sans-serif" font-size="24" font-weight="700">Machine Tunnel</text>
    <text x="105" y="207" text-anchor="middle" fill="#475569" font-family="Inter, Segoe UI, Arial, sans-serif" font-size="19">machine certificate</text>
  </g>

  <g transform="translate(635 245)">
    <rect x="0" y="0" width="210" height="145" rx="18" fill="#eef2ff" stroke="#4f46e5" stroke-width="3"/>
    <rect x="55" y="35" width="100" height="24" rx="6" fill="#ffffff" stroke="#4338ca" stroke-width="3"/>
    <rect x="55" y="66" width="100" height="24" rx="6" fill="#ffffff" stroke="#4338ca" stroke-width="3"/>
    <rect x="55" y="97" width="100" height="24" rx="6" fill="#ffffff" stroke="#4338ca" stroke-width="3"/>
    <text x="105" y="176" text-anchor="middle" fill="#0f172a" font-family="Inter, Segoe UI, Arial, sans-serif" font-size="24" font-weight="700">NetBird</text>
    <text x="105" y="207" text-anchor="middle" fill="#475569" font-family="Inter, Segoe UI, Arial, sans-serif" font-size="19">Management</text>
  </g>

  <g transform="translate(905 245)">
    <rect x="0" y="0" width="210" height="145" rx="18" fill="#fff7ed" stroke="#f97316" stroke-width="3"/>
    <circle cx="105" cy="72" r="45" fill="#ffffff" stroke="#ea580c" stroke-width="3"/>
    <path d="M73 72 H137 M105 40 V104" stroke="#ea580c" stroke-width="8" stroke-linecap="round"/>
    <text x="105" y="176" text-anchor="middle" fill="#0f172a" font-family="Inter, Segoe UI, Arial, sans-serif" font-size="24" font-weight="700">Domain Controller</text>
    <text x="105" y="207" text-anchor="middle" fill="#475569" font-family="Inter, Segoe UI, Arial, sans-serif" font-size="19">Kerberos, LDAP, SMB</text>
  </g>

  <g fill="none" stroke="#334155" stroke-width="5" stroke-linecap="round" stroke-linejoin="round">
    <path d="M312 318 H347"/>
    <path d="M347 318 L333 306"/>
    <path d="M347 318 L333 330"/>
    <path d="M582 318 H617"/>
    <path d="M617 318 L603 306"/>
    <path d="M617 318 L603 330"/>
    <path d="M852 318 H887"/>
    <path d="M887 318 L873 306"/>
    <path d="M887 318 L873 330"/>
  </g>

  <rect x="92" y="506" width="1016" height="52" rx="16" fill="#0f172a"/>
  <text x="600" y="541" text-anchor="middle" fill="#f8fafc" font-family="Inter, Segoe UI, Arial, sans-serif" font-size="24" font-weight="650">Full NetBird deployment + machine-certificate mTLS for Windows AD access</text>
</svg>
